<svg width="220mm" height="197mm" version="1.1" viewBox="0 0 220 197" xmlns="http://www.w3.org/2000/svg">
 <g transform="translate(-42.5 -2.3)">
  <path d="m155 16.1c-0.815 2.72-3.57 5.89-3.57 7.14 0 0.55-1.4 6.21-1.4 6.21-0.31 0.465-2.68 2.23-4.03 3.1-0.0928 0.0656-3.25 5.97-4.54 8.11-0.18 0.513-1.34 2.41-1.83 2.04-1.06-0.784-1.94-2.7-1.94-2.77 0-0.174-4.86-1.49-4.89-1.63 2.38-2.35 7.67-9.54 8.07-9.93 0.495-0.497 2.72-1.94 4.33-3.04-0.117 0.791-0.242 1.63-0.442 2.23-0.356 1.08-1.32 1.99-1.86 2.97 2.81-1.41 3.56-3.86 4.05-6.55 1.69-2.9 3.8-8.11 4.32-8.96 0.758-1.24 3.53-3.84 4.66-4.97 0.31-0.311-0.466 4.5-0.932 6.05zm-43.5 13.6c-0.217 0.0092-0.418-0.0578-0.666-0.255-1.22 1.85-0.692 3.35-2.12 7.1-3.34 6.38-6.72 11.4-12.8 10.5 3.7-1.8 5.32-8.3 7.6-11.3 1.28-1.69 3.34-1.71 3.88-2.95 0.475-1.09 3.71-6.21 5.74-8.3-0.315 1.24-1.22 3.88-1.63 5.19zm132 40.8c4.16 6.22 8.23 5.86 14.5 8.09-7.23-2.78-12.8-8.42-12.6-8.42-2.61-3.24-3.47-2.76-6.8-5.63-1.54-1.32-6.08-11-6.62-11.2-0.981-0.349-4.81 0.0854-5.37-0.1-1.6-0.533-3.26-4.41-4.92-5.57-0.309-0.217-8.24-3.01-8.89-3.41-2.35-1.45-2.91-3.84-4.74-5.77 0.4 0.551-1.53-2.4-2.04-3.15-0.796 0.443-2.41 1.59-2.88 2.09-0.911 0.986-2.99 4.19-4.98 5.74-2.8-0.0247-6.39-0.219-8.51-1.3-2.76-1.4-3.96-5.53-4.7-6.21-0.591-0.547-8.19-4.25-8.79-4.78-0.496-1.52-2.18-4.92-2.5-5.72-0.164-0.397-2.23-0.866-3.81-1.76-1.98-1.12-3.55-2.81-4.9-4.69-0.35-0.568-4.56-7.63-4.95-8.27-0.265-0.433-3.45-3.26-3.64-3.2-0.595 0.21-6.83 6.67-7.14 7.14-1.75 2.63-9.6 12.3-10.1 11.9-1.03 1.14-3.25 4.96-4.96 6.51-0.049 0.0579-3.65 3.64-3.81 3.81-0.906-0.621-4.17-2.16-6.52-5.05-1.56-1.91-1.79-3.42-4.12-4.88-2.08-1.3-6.74-4.1-6.74-4.1 0.012 0.123-3.03 3.25-5.82 7.54-1.4 2.15-4.83 3.11-5.48 3.5-1.19 0.724-4.23 9.65-6.68 11.4-0.768-0.165-3.09 0.533-3.15 0.556-6.27 10.9-9.92 13.7-11.4 14.1-0.225 0.0564-5.72-2.05-6.23-1.63-5.28 4.23-12.3 13.7-12.9 14.5-2.02 3.23-12.3 10.4-13.7 10.8 7.76-1.88 12.2-8.15 14.1-8.89 4.32-1.86 9.39-12 13.6-14.2-0.359 0.625 3.07 7.02 2.62 7.91-1.28 1.3-6.84 6.19-8.49 7.94 2.47-2.3 7.76-5.47 7.81-5.55 1.62-1.34 3.04-3.38 3.72-4.89 3.11-1.96 4.95-1.4 5.11-1.55 0.165-0.156 1.95-3.49 3.83-7.69 1.53-2.62 3.05-5.24 4.57-7.86 0.909 0.24 3.43 1.72 3.79 2.63 0.258 0.648 0.812 2.57 0.308 3.43-0.619 1.05-2.22 3.62-2.82 5.27 1.54-2.36 3.29-4.29 3.6-5.11 0.265-0.709 0.396-1.61 0.744-2.49 3.18-2.46 0.774-1.2 3.43-5.43 1.39-1.06 2.36-2.2 4.73-5.92 0.301 5.08-0.975 3.93-1.97 6.55 1.11-0.625 2.48-2.9 3.23-4.08 0.811-1.28 0.534-2.46 0.791-3.97 0.067-0.394 2.94-9.4 3.42-11.2 0.676 1.07 3.86 5.07 3.9 5.18 0.161 7.91 0.485 3.63 2.95 9.12 1.51 3.36 0.588 3.53 1.9 7.89-0.0314-5.87 0.306-4.92-0.825-6.96-0.62-1.12-1.05-2.31-1.58-3.47-0.636-1.4-1.66-1.22-0.814-5.52 0.674 0.405 1.35 1 1.86 1.48 0.371 1.64 0.536 3.07 0.539 3.96 2.14 1.95 3.09 1.94 3.84 3.2 0.2 0.334 0.963 0.91 1.97 1.59 0.779 1.7 0.915 2.14 1.77 2.7 1.07 0.691 2.66 1.44 3.69 2.44-1.54 0.899-4.06 2.32-4.52 2.68-2.75 1.17-7.01 2.62-7.09 2.8-2.66 6.05-4.9 9.58-9.86 12.7 0.0755 0.0078 1.88-0.755 1.95-0.742 0.59-0.245 4.42-3.13 5.38-3.43 0.471-0.406 2.71-3.15 2.73-4.78 1.76-3-0.158-3.07 6.77-5.45 1.9 0.19 2.72-0.704 3.38-0.901-1.75 3.06-0.832 4.75-1.91 6.71-1.43 2.61-4.19 5.14-5.02 7.9 1.36-1.57 2.4-3.34 3.94-4.77 1.04-0.97 2.54-1.6 3.26-2.82 1.53-2.59 1.26-6.6 3.41-8.95 0.156-0.0483 0.312-0.0938 0.468-0.134 0-0.0187 6.21-5.54 6.41-5.54 2.85-3.95 4.94-9.83 5.15-10.1 0.8-0.12 1.41 0.187 2.05 0.3 0.413 0.586 0.885 1.23 0.968 1.94 0.0981 0.834 0.148 1.81 0.166 2.82-0.213 1.2-0.378 2.57-0.0586 3.76-0.0314 0.676 1.55-6.55 2.23-9.67 0.292-1.33 0.26-2.72 0.247-4.1 0.4-1.95 0.688-4 0.806-5.08 0.222-0.364 2.94-7.52 3.58-8.49-0.0603 0.41 3.42 4.63 3.12 4.78 0.383 0.614 4.82 4.93 5.23 5.35 0.334 1.42 0.765 2.82 0.963 4.26 0.242 1.76-0.383 3.83 0.0106 5.51 0.238 1.02 1.11 1.92 1.66 2.86 0.938 1.61 1.65 3.43 2.71 4.96-1.31-2.18-2.85-8.4-2.85-9.27 4e-3 -1.42 0.413-3.99 0.295-5.37 0.548 0.157 1.1 0.148 1.71 0.0452 0.347 1.8-0.259 4.78 2.04 8.19 1.59 6.42 1.58 3.97 4.09 5.6 0.716 1.98 1.52 3.95 1.99 5.96 0.307 1.3-8e-3 3.23 0.437 4.32 0.8 1.95 3.69 4.7 5 6.55 1.55 2.18 2.8 4.71 4.58 6.75-2.39-6.07-5.98-10.7-8.72-24.4 0.504 0.182 0.99 0.669 1.53 0.747-0.0593-0.909-0.76-1.98-0.0833-2.69 0.617-0.37 5 7.21 6.78 11.1l0.872 8.17c0.709 1.55 3.71 2.54 3.84 2.74 0.61 0.929 1.27 2.91 1.62 2.85 4.74 7.49 7.21 5.62 12 9.65 0.612 1.49 2.28 2.96 0.671 0.454-1.58-4.27-6.27-2.91-11-9.85 1.98 0.323 10.5 0.423 10.7 0.501-0.207 0.0688 8.81 6.68 11.9 8.72 0.993 1.17 2.12 0.939-0.103-0.413-3.36-3.3-8.62-8.91-9.44-10.3-4.58-1.55-4.8 1.28-9.5-1.27-4.96-2.66-7.96-4-9.54-8.14 0.284-0.328 3.47-4.74 3.86-5.22-0.0155 0.146 0.695-1.67 0.719-1.55 1.27-0.157 4.69-3.69 4.93-3.53l-0.31 2.25c0.0275 0.115 0.699 2.83-0.993 4.43-0.054 0.0504-0.636 3.14-0.663 3.3 0.582-0.751 0.921-1.76 1.52-2.57 1.59-2.13 1.8-2.72 1.84-7.45 0.272-0.776 4.18-5.09 4.18-5.09 1.54 2.5 1.48 3.11 3.93 8.23 1.49 1.58 2.84 4.79 3.32 5.49 0.049 0.81 0.0589 1.62 0.0624 2.38 0.595-0.366 0.836-1.21 1.13-1.89 0.345 0.112 0.668 0.194 0.814 0.169 0.618 1.11 0.927 2.4 1.31 3.57 0.551 1.68 1.54 2.36 2.42 3.71 0.635 2.68 2.37 4.05 3.1 6.25 3.99-0.0212 7.24 8.26 10.2 10.5-1.44-4.55-7.98-9-9.39-14.6 0.169-1.48 0.581-4.64 0.942-4.74 0.582-0.155 2.6 0.609 3.65 0.875 0.498 1.68 4.28 6.23 4.28 6.23 0-0.207 2.74 2.91 3.21 2.9 0.499 0.797 5.87 5.14 6.31 6 0.43 0.839 4.98 3.02 5.59 3.72-0.392-2.04-4.29-6.94-2.41-7.6"/>
  <g transform="matrix(.0161 0 0 -.0161 104 202)">
   <path d="m3753 2489c-26.2 205-109 399-167 498-11.2 18.9-31.5 45.2-46.9-4.47-34.1-110-95.6-138-95.8-139-97.4 444-376 763-479 888-17.4 21-49.8 31.1-54.8-21.2-5.47-56.5-14.9-125-89.6-277-78.8-160-400-524-492-714-111-229-148-462-88-705 36.7-149 128-283 240-389 80.9-76.4 262-166 374-161 8.8 0.37 20 6.49 24.2 14.3 8.83 16.7-7.84 30.8-22.2 39.6-147 89.6-280 187-331 361-43.7 148-27.6 310 16.6 456 84.5 284 308 511 418 646 23.3 28.5 32.9 18.3 40-8.87 62.2-240 286-491 311-728 50.8 38.1 81.5 85.2 115 147 6.22 11.4 17.5 22 26.7-3.27 64.1-177 122-451-46.9-669-59.4-76.5-190-160-275-198-26.6-11.9-58.5-23.4-63.1-44.1-1.67-7.42 3.04-14.9 10.3-17.1 0.04-0.01 0.08-0.02 0.12-0.04 127-38.8 378 114 473 220 248 273 232 584 203 810"/>
   <path d="m1854 1330c-22.5 72.9 4.4 177 24.6 249 20.8 74.4 58.4 151 131 186 37.3 17.9 77 19.6 112 4.85 103-43.4 212-78.1 317-112 57.3-18.3 117-37.2 175-57.4 128-44.3 253-92 375-138 0 0 424 153 587 208 95.9 32.7 195 66.5 292 102 19.4 7.09 38.9 9.58 57.8 7.46 84.8-9.49 133-91.9 166-163 37-79.2 56.2-171 36.9-258-12.6-56.5-30.1-84.2-70.2-109-70.2-43.4-161-73.8-244-96.8 30.8-12.5 60.8-24.7 90-36.6 73.1-29.8 132-41.6 189-100 30.7-31.4 38.1-101 30.2-140-22.4-110-59.9-234-169-324-2.24-1.85-4.6-3.98-7.08-6.2-34.8-31.2-73.9-50.6-165-34.1-152 27.6-373 114-405 126-199 78.3-387 179-417 166-32.9-14.6-107-46.5-137-59.5-117-50.7-234-99.2-352-145-76.4-29.9-151-64.6-231-86.4-37.3-10.2-61.6-16.4-99.7-21.8-32-4.52-72.2 13.5-94.7 35-2.59 2.47-5.53 5.28-7.1 6.53l-2.64 2.1-2.38 2.4c-112 112-150 232-173 335-7.45 34-1.96 86.3 18 117 14.5 22.7 37.1 39.9 59.2 54.3 20.6 13.4 43.5 22.9 66.2 32.2 41.9 17.3 80.9 39.4 124 54.2 6.99 2.39 13.6 4.51 20 6.47-71.9 31.8-146 64.7-218 100-35.8 17.6-62.7 50.6-75.8 93.1"/>
   <path d="m3164 884c176-69.1 383-174 554-191 15.1-1.49 23.5 10.1 23.9 31.3-6.2 9.29-14.9 14.3-25.2 19.1-85.1 39.3-160 73-245 113-27.6 13-76 38-84.4 59.8-3.43 28.4 58.5 1.43 82-8.35 91.2-38 180-71.2 269-114 47.6-23.1 61.1 1.72 79.6 36.5 21.8 41 6 55.6-31.2 73.3-47.3 22.5-175 64.1-158 88.6 4.46 11.4 131-28.3 183-48.1 45.3-17.3 74.2-10.6 105 26.3 31.2 37 50.4 56.3 10.6 72.5-145 58.8-316 130-498 194-294 100-554 210-834 307-165 57.4-334 102-495 170-46.6 19.7-105-19.7-119-68.1-9.86-35 18-35.9 37-45.2 30.9-15.2 68.2-17.9 100-42.6 9.73-7.53 5.08-25.6-7.12-24-35.8 4.66-69 14.2-99.1 25.9-26.2 10.2-57.7 34.8-71.1-5.98-12.1-36.7 29.3-42.4 52.8-51.6 85-33 171-62.4 257-94.3 12.4-4.62 25.1-9.89 35.6-18.9 34.8-29.9 2.26-36.7-16.9-35-8.44 0.75-17.4 4.64-25.9 7.4-77.1 25-147 53-223 81-23.1 8.52-92.2 48.3-95.6-18.8-0.99-19.8 5.9-41.2 23.5-50.3 57-29.5 178-77.9 235-107 113-58.3 188-79.9 305-127 217-87.6 508-188 678-255" style="fill:#fff"/>
   <path d="m3832 658c-3.24-31.7-12.6-64.8 11.4-71.4 27.8-7.72 50.4 18.6 67.2 32.5 85.8 70.8 119 170 140 274 4.49 22.1 11.4 84.9-19.7 82.1-30-2.73-47.7-22-65.5-40.1-62.1-66.3-112-139-134-277" style="fill:#fff"/>
   <path d="m2155 646c-10.1 109-66.6 220-134 287-19.3 19.2-45.7 42.6-72.2 30.1-26.9-12.6-18.6-50.9-13.9-72.5 22.4-102 58.6-197 146-285 15.6-12.4 31.4-36.3 55.8-28.3 13.1 4.34 18.7 22.7 18.2 68.6" style="fill:#fff"/>
   <path d="m2445 1024c-62.4 23.9-125 46.5-188 68.2-34.1 13.6-189-40.2-207-69.8-13.2-21 3.19-32.8 13.8-45.8 27.2-33.2 55.3-105 104-110 29.7-3.4 66.2 21.2 93.6 30.6 37.6 12.9 76.4 23.7 116 29 11 1.46 22.8-16.3 2.55-28.1-46.8-27.5-102-51.5-155-63.9-18.4-4.29-38.2-2.31-40.5-25.9-1.39-14.4 10.1-31.7 23.4-36.7 23.4-8.95 52 9.57 73.4 17.1 43.4 15.2 85.8 32.9 128 50.6 57.3 23.9 115 47.8 172 71.6 11 4.57 22.6 9.75 28.8 19.9 22.4 37.3-137 83.2-164 93.4" style="fill:#fff"/>
   <path d="m4044 1565c-12.8 38.4-37.9 31.2-66.8 19.8-84.7-33.4-170-65.3-255-97.7-12.2-4.64-36.1-8.73-54.5-9.09-10-0.2-15.8 18.5-7.81 24.6 24.2 18.3 72.9 44.7 99.5 54.7 59.2 22.2 119 42.2 178 65.3 22.2 8.69 53.9 15.7 45.7 50-7.8 32.6-32.6 43.8-65.7 47.5-9.77 1.1-19.7-0.19-28.9-3.56-262-95.6-529-176-787-282-1.99-0.82-14.4-4.79-35.6-11.3 12.6 3.88 48.4-13.9 61.1-19.3 47.8-20.4 101 15.7 146 29.3 58.6 17.7 94.3 32.4 143 39 11 1.46 22.8-16.3 2.55-28.1-29.5-17.3-61-30.9-93-42.8-18.2-6.8-36.6-13.2-55.2-18.8-15.1-4.55-34.2-11.3-14.2-23.9 13.2-8.24 50.8-18.7 71.2-25.8 48.8-17.1 97.7-33.9 147-50 68.6-22.4 112-14.5 180 11.6 120 45.9 221 79.5 329 125 18.1 7.51 38.9 10.6 52.4 24.8 26.5 28.1 18.6 87.6 7.36 121" style="fill:#fff"/>
  </g>
  <g transform="matrix(.676 0 0 .676 122 78.3)" style="fill:#497cbf">
   <path d="m62.1 13.9v-3.89h2.68v-4.43a3.21 3.21 0 0 0-3.21-3.21h-33.2a3.21 3.21 0 0 0-3.21 3.21v4.43h2.67v3.89c-6.6 0.4-11.8 5.9-11.8 12.6v48.6c0 6.96 5.66 12.6 12.6 12.6h32.7c6.96 0 12.6-5.66 12.6-12.6v-48.6c0-6.7-5.25-12.2-11.8-12.6zm8.97 61.2c0 5.37-4.37 9.74-9.74 9.74h-32.7c-5.37 0-9.74-4.37-9.74-9.74v-48.6c0-5.37 4.37-9.74 9.74-9.74h2.1v-6.49h28.5v6.49h2.1c5.37 0 9.74 4.37 9.74 9.74z" style="fill:#000"/>
   <path d="m36.1 28.7c-1.76 1.93-2.29 4.33-1.13 5.62 1.16 1.29 3.6 1.01 5.7-0.542 0.53 1.2 1.35 2.15 1.9 2.79l0.597 0.695 0.666-0.63c1.33-1.25 4.11-3.88 2.46-7.71 1.32-1.35 1.41-3.5 0.13-4.92-1.28-1.42-3.43-1.56-4.92-0.379-3.66-2.05-6.54 0.438-7.93 1.64l-0.694 0.597 0.629 0.666c0.576 0.613 1.44 1.53 2.58 2.18zm7.18 6.52c-1.12-1.33-2.39-3.22-1.21-5.64a3.57 3.57 0 0 0 3.01 0.162c0.912 2.52-0.546 4.27-1.79 5.47zm-2.71-10.5a3.57 3.57 0 0 0-0.159 3c-2.52 0.92-4.28-0.541-5.48-1.79 1.33-1.12 3.22-2.39 5.64-1.21zm-9.47 13.1a0.69 0.69 0 0 0 0.975 0.052c0.283-0.256 1.65-2.42 1.65-2.42s-2.29 1.14-2.57 1.39a0.69 0.69 0 0 0-0.051 0.975zm3.44 1.85a0.69 0.69 0 0 0 0.833-0.511c0.088-0.371-0.01-2.93-0.01-2.93s-1.24 2.23-1.33 2.6a0.69 0.69 0 0 0 0.511 0.833zm2.87-0.703a0.691 0.691 0 1 0 1.34-0.322c-0.089-0.37-1.34-2.6-1.34-2.6s-0.096 2.56-7e-3 2.93zm-6.8-7.54c0.36 0.127 2.91 0.296 2.91 0.296s-2.09-1.47-2.45-1.6a0.69 0.69 0 0 0-0.46 1.3zm-0.221 3.38c0.378-0.05 2.73-1.06 2.73-1.06s-2.53-0.363-2.91-0.313a0.691 0.691 0 1 0 0.18 1.37zm0.839 32.7c0.425 4.15 4.11 5.09 5.88 5.54l0.888 0.227 0.186-0.897c0.172-0.823 0.428-2.06 0.311-3.36 2.59 0.335 4.86-0.599 5.25-2.29 0.392-1.69-1.24-3.53-3.71-4.36 0.678-1.12 0.989-2.34 1.2-3.16l0.228-0.888-0.898-0.185c-1.78-0.375-5.52-1.14-7.71 2.38a3.61 3.61 0 0 0-4.12 2.74 3.61 3.61 0 0 0 2.51 4.27zm5.69 4.04c-1.68-0.448-3.8-1.27-4.22-3.91a3.61 3.61 0 0 0 2.56-1.6c2.19 1.54 1.99 3.81 1.66 5.51zm2.81-12.2c-0.448 1.67-1.27 3.79-3.91 4.22a3.6 3.6 0 0 0-1.6-2.57c1.54-2.18 3.81-1.98 5.51-1.65zm9.1 8.5a0.69 0.69 0 0 0-0.518-0.83c-0.371-0.085-2.93 0.033-2.93 0.033s2.24 1.23 2.62 1.31a0.691 0.691 0 0 0 0.829-0.517zm-0.841-2.98a0.691 0.691 0 0 0-0.506-1.28c-0.355 0.14-2.39 1.68-2.39 1.68s2.54-0.26 2.9-0.4zm-2.87-3.76c-0.253 0.285-1.37 2.59-1.37 2.59s2.15-1.39 2.4-1.67a0.69 0.69 0 0 0-1.03-0.915zm-2.58 11.2a0.69 0.69 0 1 0 1.33-0.37c-0.101-0.367-1.42-2.56-1.42-2.56s-7e-3 2.56 0.095 2.93zm4.18-1.15a0.691 0.691 0 0 0 0.043-0.975c-0.258-0.282-2.43-1.63-2.43-1.63s1.15 2.28 1.41 2.56c0.258 0.281 0.695 0.3 0.977 0.043zm0.782-24c-1.48 1.18-1.84 3.3-0.746 4.87 1.1 1.57 3.21 1.97 4.82 0.991 3.36 2.47 6.55 0.369 8.07-0.646l0.764-0.506-0.541-0.74c-0.495-0.68-1.24-1.7-2.28-2.49 1.99-1.7 2.82-4.01 1.82-5.43s-3.45-1.45-5.73-0.174c-0.377-1.26-1.07-2.31-1.54-3.01l-0.506-0.764-0.74 0.54c-1.48 1.08-4.56 3.32-3.39 7.35zm5.16 4.86a3.57 3.57 0 0 0 0.524-2.96c2.62-0.596 4.17 1.07 5.21 2.46-1.46 0.942-3.49 1.96-5.74 0.505zm-1.39-10.7c0.943 1.46 1.97 3.5 0.5 5.75a3.57 3.57 0 0 0-2.96-0.527c-0.6-2.62 1.07-4.18 2.46-5.22zm12.2-0.077a0.691 0.691 0 0 0-0.79-1.13c-0.312 0.218-1.94 2.19-1.94 2.19s2.42-0.84 2.73-1.06zm0.501 2.12c-0.382 2e-3 -2.84 0.707-2.84 0.707s2.47 0.676 2.85 0.674a0.691 0.691 0 0 0-8e-3 -1.38zm-3.49 2.67s1.89 1.72 2.23 1.89a0.691 0.691 0 0 0 0.62-1.24c-0.342-0.171-2.85-0.658-2.85-0.658zm-2.95-7.68a0.691 0.691 0 0 0-1.37 0.152c0.042 0.379 1 2.75 1 2.75s0.414-2.52 0.372-2.9zm2.94-0.338a0.69 0.69 0 0 0-0.89 0.403c-0.133 0.357-0.355 2.9-0.355 2.9s1.51-2.06 1.65-2.42a0.69 0.69 0 0 0-0.403-0.89zm-15.1 40.4c-9.88 0-17.9 0.95-17.9 2.12s8 1.16 17.9 1.16c9.88 0 17.9 0.01 17.9-1.16s-8-2.12-17.9-2.12z" style="fill:#000"/>
  </g>
 </g>
</svg>
