<svg id="Capa_1" enable-background="new 0 0 512 512" height="512" viewBox="0 0 512 512" width="512" xmlns="http://www.w3.org/2000/svg"><g><g><path d="m411.435 47.756c-7.831-24.01-30.219-40.256-55.473-40.256h-199.924c-25.254 0-47.642 16.246-55.473 40.256l-22.097 67.748 177.532 35.609 177.532-35.61z" fill="#f9f6f9"/><path d="m129.011 411.208 8.728 59.847c2.801 19.204 19.269 33.445 38.676 33.445h159.171c19.407 0 35.875-14.241 38.676-33.445l8.728-59.847z" fill="#d6a582"/><path d="m195.69 446.376c0-12.301 2.388-24.129 6.793-35.168h-73.473l8.728 59.847c2.801 19.204 19.269 33.445 38.676 33.445h38.924c-12.445-16.85-19.648-36.772-19.648-58.124z" fill="#cf966f"/><path d="m256 151.113-177.532 35.61 26.229 200.619c3.281 25.099 24.668 43.871 49.98 43.871h202.646c25.312 0 46.699-18.773 49.98-43.871l26.229-200.619z" fill="#9ee4d4"/><path d="m171.401 7.5h-15.363c-25.254 0-47.642 16.247-55.473 40.256l-22.097 67.748 45.645 9.156c7.485-44.579 23.234-84.704 47.288-117.16z" fill="#dddaec"/><path d="m433.532 115.503h-355.064c-14.275 0-25.847 11.572-25.847 25.847v19.525c0 14.275 11.572 25.847 25.847 25.847h355.064c14.275 0 25.847-11.572 25.847-25.847v-19.525c0-14.274-11.572-25.847-25.847-25.847z" fill="#d6a582"/><path d="m209.026 255.817c-32.479 32.479-37.783 79.843-11.843 105.784l62.763-14.656 45.095-45.095 9.768-57.875c-25.94-25.941-73.298-20.643-105.783 11.842z" fill="#cf966f"/><path d="m314.81 243.974c-40.678 92.352-91.693 48.108-117.627 117.627 25.947 25.947 73.311 20.642 105.79-11.836 32.486-32.486 37.783-79.844 11.837-105.791z" fill="#c8875a"/><path d="m119.011 187.729c0-3.068.046-6.119.114-9.161l-40.656 8.155 26.229 200.619c3.281 25.099 24.668 43.871 49.98 43.871h42.013c-51.89-55.759-77.68-150.115-77.68-243.484z" fill="#7cdac2"/><path d="m125.764 115.503h-47.296c-14.275 0-25.847 11.572-25.847 25.847v19.526c0 14.275 11.572 25.847 25.847 25.847h40.551c.059-24.685 2.301-48.574 6.745-71.22z" fill="#cf966f"/></g><g><path d="m170.338 43.327c-4.142 0-7.5 3.358-7.5 7.5v16.46c0 4.142 3.358 7.5 7.5 7.5s7.5-3.358 7.5-7.5v-16.46c0-4.142-3.358-7.5-7.5-7.5z"/><path d="m341.662 43.327c-4.142 0-7.5 3.358-7.5 7.5v16.46c0 4.142 3.358 7.5 7.5 7.5s7.5-3.358 7.5-7.5v-16.46c0-4.142-3.358-7.5-7.5-7.5z"/><path d="m283.512 61.143c-3.122-2.721-7.86-2.396-10.582.727-4.274 4.904-10.445 7.716-16.93 7.716-6.486 0-12.656-2.812-16.93-7.716-2.721-3.123-7.458-3.448-10.582-.727-3.123 2.721-3.448 7.459-.727 10.582 7.123 8.173 17.416 12.861 28.239 12.861s21.115-4.688 28.238-12.861c2.722-3.123 2.397-7.86-.726-10.582z"/><path d="m97.26 388.314c2.315 17.708 12.586 32.724 26.906 41.646l6.151 42.177c3.314 22.726 23.131 39.863 46.097 39.863h159.171c22.966 0 42.783-17.137 46.097-39.863l6.151-42.177c14.32-8.922 24.59-23.938 26.905-41.646l25.463-194.762c15.202-3.099 26.676-16.572 26.676-32.676v-19.525c0-16.479-12.018-30.196-27.748-32.868l-20.564-63.053c-8.863-27.173-34.021-45.43-62.603-45.43h-199.924c-28.582 0-53.74 18.257-62.604 45.43l-20.565 63.053c-15.73 2.671-27.749 16.389-27.749 32.868v19.525c0 16.104 11.474 29.577 26.676 32.676zm10.436-338.232c6.843-20.984 26.271-35.082 48.342-35.082h199.923c22.071 0 41.499 14.098 48.343 35.082l18.893 57.922h-334.394zm-47.575 110.794v-19.525c0-10.117 8.23-18.347 18.347-18.347h355.064c10.117 0 18.347 8.23 18.347 18.347v19.525c0 10.117-8.23 18.347-18.347 18.347h-236.99c-4.142 0-7.5 3.358-7.5 7.5s3.358 7.5 7.5 7.5h228.446l-25.122 192.147c-2.759 21.107-20.905 37.344-42.543 37.344h-27.511c-4.142 0-7.5 3.358-7.5 7.5s3.358 7.5 7.5 7.5h27.511c4.695 0 9.64-.609 14.34-1.811l-4.823 33.071c-2.247 15.407-15.683 27.026-31.254 27.026h-159.172c-15.571 0-29.008-11.619-31.254-27.027l-4.823-33.071c4.792 1.228 9.779 1.811 14.34 1.811h145.134c4.142 0 7.5-3.358 7.5-7.5s-3.358-7.5-7.5-7.5h-145.134c-21.474 0-39.761-16.054-42.543-37.344l-25.122-192.146h79.529c4.142 0 7.5-3.358 7.5-7.5s-3.358-7.5-7.5-7.5h-88.073c-10.117 0-18.347-8.23-18.347-18.347z"/><path d="m191.874 366.898c.002.002.004.004.006.006 12.498 12.498 29.386 18.578 47.396 18.578 23.532 0 48.974-10.388 69.001-30.414 35.353-35.353 40.663-87.566 11.839-116.394-.001-.001-.001-.002-.002-.003-31.124-31.124-83.697-20.851-116.39 11.843-35.353 35.351-40.667 87.559-11.85 116.384zm105.796-22.437c-28.028 28.028-67.965 34.221-91.59 15.073 9.844-23.209 21.108-30.019 44.024-39.86 32.789-14.06 48.946-27.444 66.318-61.566 14.486 23.968 7.297 60.304-18.752 86.353zm-83.34-83.341c30.769-30.77 70.166-32.234 91.371-15.251-16.236 34.513-30.911 46.894-62.099 60.273-22.828 9.798-36.934 18.533-48.266 40.93-14.169-23.968-6.914-60.044 18.994-85.952z"/></g></g></svg>