<svg width="74.2" height="105" fill="#497cbf" version="1.1" viewBox="0 0 66.9 93.8" xmlns="http://www.w3.org/2000/svg">
 <path id="jar" d="m50.6 15.6v-3.89h2.68v-4.43a3.21 3.21 0 0 0-3.21-3.21h-33.2a3.21 3.21 0 0 0-3.21 3.21v4.43h2.67v3.89c-6.6 0.4-11.8 5.9-11.8 12.6v48.6c0 6.96 5.66 12.6 12.6 12.6h32.7c6.96 0 12.6-5.66 12.6-12.6v-48.6c0-6.7-5.25-12.2-11.8-12.6zm8.97 61.2c0 5.37-4.37 9.74-9.74 9.74h-32.7c-5.37 0-9.74-4.37-9.74-9.74v-48.6c0-5.37 4.37-9.74 9.74-9.74h2.1v-6.49h28.5v6.49h2.1c5.37 0 9.74 4.37 9.74 9.74z" style="fill:#497cbf"/>
 <path id="fireflyTop" d="m24.6 30.4c-1.76 1.93-2.29 4.33-1.13 5.62s3.6 1.01 5.7-0.542c0.53 1.2 1.35 2.15 1.9 2.79l0.597 0.695 0.666-0.63c1.33-1.25 4.11-3.88 2.46-7.71 1.32-1.35 1.41-3.5 0.13-4.92s-3.43-1.56-4.92-0.379c-3.66-2.05-6.54 0.438-7.93 1.64l-0.694 0.597 0.629 0.666c0.576 0.613 1.44 1.53 2.58 2.18zm7.18 6.52c-1.12-1.33-2.39-3.22-1.21-5.64 0.929 0.495 2.03 0.554 3.01 0.162 0.912 2.52-0.546 4.27-1.79 5.47zm-2.71-10.5c-0.492 0.929-0.55 2.03-0.159 3-2.52 0.92-4.28-0.541-5.48-1.79 1.33-1.12 3.22-2.39 5.64-1.21zm-9.47 13.1c0.255 0.284 0.691 0.307 0.975 0.052 0.283-0.256 1.65-2.42 1.65-2.42s-2.29 1.14-2.57 1.39c-0.284 0.255-0.306 0.692-0.051 0.975zm3.44 1.85c0.371 0.0895 0.745-0.14 0.833-0.511s-0.01-2.93-0.01-2.93-1.24 2.23-1.33 2.6c-0.0895 0.371 0.14 0.745 0.511 0.833zm2.87-0.703c0.215 0.895 1.56 0.573 1.34-0.322-0.089-0.37-1.34-2.6-1.34-2.6s-0.096 2.56-7e-3 2.93zm-6.8-7.54c0.36 0.127 2.91 0.296 2.91 0.296s-2.09-1.47-2.45-1.6c-0.868-0.307-1.33 0.995-0.46 1.3zm-0.221 3.38c0.378-0.05 2.73-1.06 2.73-1.06s-2.53-0.363-2.91-0.313c-0.913 0.12-0.733 1.49 0.18 1.37z" style="fill:#497cbf"/>
 <path id="fireflyMiddle" d="m42.1 44.5c2.3-1.24 4.75-1.18 5.72 0.263 0.971 1.44 0.107 3.74-1.91 5.4 1.04 0.804 1.76 1.83 2.25 2.52l0.53 0.747-0.772 0.494c-1.54 0.991-4.76 3.05-8.08 0.522-1.63 0.953-3.74 0.526-4.81-1.07-1.07-1.59-0.679-3.71 0.821-4.86-1.1-4.05 2.01-6.24 3.51-7.3l0.747-0.529 0.494 0.771c0.455 0.707 1.14 1.77 1.49 3.03zm4.59 8.55c-1.02-1.41-2.55-3.09-5.18-2.54 0.255 1.02 0.0463 2.1-0.57 2.96 2.22 1.49 4.28 0.503 5.75-0.416zm-9.51-5.16c1.02-0.253 2.1-0.0434 2.95 0.572 1.5-2.23 0.51-4.28-0.41-5.75-1.41 1.02-3.1 2.55-2.54 5.18zm15-6.03c0.214 0.316 0.131 0.745-0.185 0.959-0.317 0.213-2.75 1.02-2.75 1.02s1.66-1.95 1.97-2.16c0.316-0.213 0.745-0.13 0.958 0.186zm0.967 3.78c-0.0029 0.382-0.316 0.689-0.697 0.685-0.381-0.0044-2.84-0.718-2.84-0.718s2.47-0.668 2.85-0.664c0.382 0.0029 0.689 0.315 0.685 0.697zm-1.38 2.62c0.817 0.425 0.18 1.65-0.637 1.23-0.337-0.176-2.2-1.93-2.2-1.93s2.5 0.525 2.84 0.702zm-5.68-8.42c0.0361 0.38-0.417 2.9-0.417 2.9s-0.921-2.39-0.957-2.77c-0.0876-0.916 1.29-1.05 1.37-0.131zm3.33 0.603c-0.14 0.355-1.69 2.39-1.69 2.39s0.261-2.55 0.4-2.9c0.337-0.857 1.62-0.351 1.29 0.506z" style="fill:#497cbf"/>
 <path id="fireflyBottom" d="m27 70.1c2.59 0.333 4.86-0.603 5.25-2.3 0.39-1.69-1.24-3.53-3.72-4.36 0.678-1.12 0.988-2.34 1.19-3.16l0.227-0.888-0.898-0.184c-1.79-0.375-5.53-1.14-7.73 2.41-1.87-0.305-3.68 0.849-4.11 2.72-0.43 1.87 0.695 3.7 2.51 4.24 0.419 4.17 4.11 5.11 5.89 5.56l0.887 0.226 0.185-0.897c0.172-0.823 0.427-2.06 0.309-3.36zm1.23-9.62c-0.447 1.68-1.27 3.8-3.92 4.23-0.128-1.05-0.711-1.98-1.59-2.56 1.54-2.19 3.81-2 5.51-1.67zm-7.03 8.23c1.04-0.13 1.98-0.712 2.55-1.59 2.2 1.54 2.01 3.81 1.68 5.52-1.68-0.448-3.81-1.27-4.23-3.93zm16.1 0.263c0.0864-0.371-0.145-0.743-0.517-0.828s-2.93 0.0353-2.93 0.0353 2.24 1.23 2.62 1.31c0.372 0.0859 0.742-0.146 0.828-0.517zm-0.453-3.88c-0.14-0.355-0.541-0.53-0.896-0.389-0.354 0.141-2.39 1.69-2.39 1.69s2.54-0.262 2.9-0.401c0.355-0.14 0.53-0.541 0.389-0.896zm-2.22-1.95c0.61-0.689-0.424-1.6-1.03-0.915-0.252 0.285-1.37 2.59-1.37 2.59s2.15-1.39 2.4-1.67zm-2.28 9.9c-0.102-0.368-1.43-2.56-1.43-2.56s-0.0045 2.56 0.0974 2.93c0.247 0.887 1.58 0.517 1.33-0.37zm2.9-1.76c-0.258-0.281-2.43-1.63-2.43-1.63s1.16 2.28 1.41 2.56c0.622 0.679 1.64-0.254 1.02-0.933z" style="fill:#497cbf"/>
 <path id="shadow" d="m33.9 79.1c-9.87 0-17.9 0.95-17.9 2.12s8 1.16 17.9 1.16c9.88 0 17.9 0.01 17.9-1.16s-8.01-2.12-17.9-2.12z" style="fill:#497cbf"/>
</svg>
