<svg width="220mm" height="86.1mm" version="1.1" viewBox="0 0 220 86.1" xmlns="http://www.w3.org/2000/svg">
 <g transform="translate(-42.5 -2.3)">
  <path id="ridgeline" d="m155 16.1c-0.815 2.72-3.57 5.89-3.57 7.14 0 0.55-1.4 6.21-1.4 6.21-0.31 0.465-2.68 2.23-4.03 3.1-0.0928 0.0656-3.25 5.97-4.54 8.11-0.18 0.513-1.34 2.41-1.83 2.04-1.06-0.784-1.94-2.7-1.94-2.77 0-0.174-4.86-1.49-4.89-1.63 2.38-2.35 7.67-9.54 8.07-9.93 0.495-0.497 2.72-1.94 4.33-3.04-0.117 0.791-0.242 1.63-0.442 2.23-0.356 1.08-1.32 1.99-1.86 2.97 2.81-1.41 3.56-3.86 4.05-6.55 1.69-2.9 3.8-8.11 4.32-8.96 0.758-1.24 3.53-3.84 4.66-4.97 0.31-0.311-0.466 4.5-0.932 6.05zm-43.5 13.6c-0.217 0.0092-0.418-0.0578-0.666-0.255-1.22 1.85-0.692 3.35-2.12 7.1-3.34 6.38-6.72 11.4-12.8 10.5 3.7-1.8 5.32-8.3 7.6-11.3 1.28-1.69 3.34-1.71 3.88-2.95 0.475-1.09 3.71-6.21 5.74-8.3-0.315 1.24-1.22 3.88-1.63 5.19zm132 40.8c4.16 6.22 8.23 5.86 14.5 8.09-7.23-2.78-12.8-8.42-12.6-8.42-2.61-3.24-3.47-2.76-6.8-5.63-1.54-1.32-6.08-11-6.62-11.2-0.981-0.349-4.81 0.0854-5.37-0.1-1.6-0.533-3.26-4.41-4.92-5.57-0.309-0.217-8.24-3.01-8.89-3.41-2.35-1.45-2.91-3.84-4.74-5.77 0.4 0.551-1.53-2.4-2.04-3.15-0.796 0.443-2.41 1.59-2.88 2.09-0.911 0.986-2.99 4.19-4.98 5.74-2.8-0.0247-6.39-0.219-8.51-1.3-2.76-1.4-3.96-5.53-4.7-6.21-0.591-0.547-8.19-4.25-8.79-4.78-0.496-1.52-2.18-4.92-2.5-5.72-0.164-0.397-2.23-0.866-3.81-1.76-1.98-1.12-3.55-2.81-4.9-4.69-0.35-0.568-4.56-7.63-4.95-8.27-0.265-0.433-3.45-3.26-3.64-3.2-0.595 0.21-6.83 6.67-7.14 7.14-1.75 2.63-9.6 12.3-10.1 11.9-1.03 1.14-3.25 4.96-4.96 6.51-0.049 0.0579-3.65 3.64-3.81 3.81-0.906-0.621-4.17-2.16-6.52-5.05-1.56-1.91-1.79-3.42-4.12-4.88-2.08-1.3-6.74-4.1-6.74-4.1 0.012 0.123-3.03 3.25-5.82 7.54-1.4 2.15-4.83 3.11-5.48 3.5-1.19 0.724-4.23 9.65-6.68 11.4-0.768-0.165-3.09 0.533-3.15 0.556-6.27 10.9-9.92 13.7-11.4 14.1-0.225 0.0564-5.72-2.05-6.23-1.63-5.28 4.23-12.3 13.7-12.9 14.5-2.02 3.23-12.3 10.4-13.7 10.8 7.76-1.88 12.2-8.15 14.1-8.89 4.32-1.86 9.39-12 13.6-14.2-0.359 0.625 3.07 7.02 2.62 7.91-1.28 1.3-6.84 6.19-8.49 7.94 2.47-2.3 7.76-5.47 7.81-5.55 1.62-1.34 3.04-3.38 3.72-4.89 3.11-1.96 4.95-1.4 5.11-1.55 0.165-0.156 1.95-3.49 3.83-7.69 1.53-2.62 3.05-5.24 4.57-7.86 0.909 0.24 3.43 1.72 3.79 2.63 0.258 0.648 0.812 2.57 0.308 3.43-0.619 1.05-2.22 3.62-2.82 5.27 1.54-2.36 3.29-4.29 3.6-5.11 0.265-0.709 0.396-1.61 0.744-2.49 3.18-2.46 0.774-1.2 3.43-5.43 1.39-1.06 2.36-2.2 4.73-5.92 0.301 5.08-0.975 3.93-1.97 6.55 1.11-0.625 2.48-2.9 3.23-4.08 0.811-1.28 0.534-2.46 0.791-3.97 0.067-0.394 2.94-9.4 3.42-11.2 0.676 1.07 3.86 5.07 3.9 5.18 0.161 7.91 0.485 3.63 2.95 9.12 1.51 3.36 0.588 3.53 1.9 7.89-0.0314-5.87 0.306-4.92-0.825-6.96-0.62-1.12-1.05-2.31-1.58-3.47-0.636-1.4-1.66-1.22-0.814-5.52 0.674 0.405 1.35 1 1.86 1.48 0.371 1.64 0.536 3.07 0.539 3.96 2.14 1.95 3.09 1.94 3.84 3.2 0.2 0.334 0.963 0.91 1.97 1.59 0.779 1.7 0.915 2.14 1.77 2.7 1.07 0.691 2.66 1.44 3.69 2.44-1.54 0.899-4.06 2.32-4.52 2.68-2.75 1.17-7.01 2.62-7.09 2.8-2.66 6.05-4.9 9.58-9.86 12.7 0.0755 0.0078 1.88-0.755 1.95-0.742 0.59-0.245 4.42-3.13 5.38-3.43 0.471-0.406 2.71-3.15 2.73-4.78 1.76-3-0.158-3.07 6.77-5.45 1.9 0.19 2.72-0.704 3.38-0.901-1.75 3.06-0.832 4.75-1.91 6.71-1.43 2.61-4.19 5.14-5.02 7.9 1.36-1.57 2.4-3.34 3.94-4.77 1.04-0.97 2.54-1.6 3.26-2.82 1.53-2.59 1.26-6.6 3.41-8.95 0.156-0.0483 0.312-0.0938 0.468-0.134 0-0.0187 6.21-5.54 6.41-5.54 2.85-3.95 4.94-9.83 5.15-10.1 0.8-0.12 1.41 0.187 2.05 0.3 0.413 0.586 0.885 1.23 0.968 1.94 0.0981 0.834 0.148 1.81 0.166 2.82-0.213 1.2-0.378 2.57-0.0586 3.76-0.0314 0.676 1.55-6.55 2.23-9.67 0.292-1.33 0.26-2.72 0.247-4.1 0.4-1.95 0.688-4 0.806-5.08 0.222-0.364 2.94-7.52 3.58-8.49-0.0603 0.41 3.42 4.63 3.12 4.78 0.383 0.614 4.82 4.93 5.23 5.35 0.334 1.42 0.765 2.82 0.963 4.26 0.242 1.76-0.383 3.83 0.0106 5.51 0.238 1.02 1.11 1.92 1.66 2.86 0.938 1.61 1.65 3.43 2.71 4.96-1.31-2.18-2.85-8.4-2.85-9.27 4e-3 -1.42 0.413-3.99 0.295-5.37 0.548 0.157 1.1 0.148 1.71 0.0452 0.347 1.8-0.259 4.78 2.04 8.19 1.59 6.42 1.58 3.97 4.09 5.6 0.716 1.98 1.52 3.95 1.99 5.96 0.307 1.3-8e-3 3.23 0.437 4.32 0.8 1.95 3.69 4.7 5 6.55 1.55 2.18 2.8 4.71 4.58 6.75-2.39-6.07-5.98-10.7-8.72-24.4 0.504 0.182 0.99 0.669 1.53 0.747-0.0593-0.909-0.76-1.98-0.0833-2.69 0.617-0.37 5 7.21 6.78 11.1l0.872 8.17c0.709 1.55 3.71 2.54 3.84 2.74 0.61 0.929 1.27 2.91 1.62 2.85 4.74 7.49 7.21 5.62 12 9.65 0.612 1.49 2.28 2.96 0.671 0.454-1.58-4.27-6.27-2.91-11-9.85 1.98 0.323 10.5 0.423 10.7 0.501-0.207 0.0688 8.81 6.68 11.9 8.72 0.993 1.17 2.12 0.939-0.103-0.413-3.36-3.3-8.62-8.91-9.44-10.3-4.58-1.55-4.8 1.28-9.5-1.27-4.96-2.66-7.96-4-9.54-8.14 0.284-0.328 3.47-4.74 3.86-5.22-0.0155 0.146 0.695-1.67 0.719-1.55 1.27-0.157 4.69-3.69 4.93-3.53l-0.31 2.25c0.0275 0.115 0.699 2.83-0.993 4.43-0.054 0.0504-0.636 3.14-0.663 3.3 0.582-0.751 0.921-1.76 1.52-2.57 1.59-2.13 1.8-2.72 1.84-7.45 0.272-0.776 4.18-5.09 4.18-5.09 1.54 2.5 1.48 3.11 3.93 8.23 1.49 1.58 2.84 4.79 3.32 5.49 0.049 0.81 0.0589 1.62 0.0624 2.38 0.595-0.366 0.836-1.21 1.13-1.89 0.345 0.112 0.668 0.194 0.814 0.169 0.618 1.11 0.927 2.4 1.31 3.57 0.551 1.68 1.54 2.36 2.42 3.71 0.635 2.68 2.37 4.05 3.1 6.25 3.99-0.0212 7.24 8.26 10.2 10.5-1.44-4.55-7.98-9-9.39-14.6 0.169-1.48 0.581-4.64 0.942-4.74 0.582-0.155 2.6 0.609 3.65 0.875 0.498 1.68 4.28 6.23 4.28 6.23 0-0.207 2.74 2.91 3.21 2.9 0.499 0.797 5.87 5.14 6.31 6 0.43 0.839 4.98 3.02 5.59 3.72-0.392-2.04-4.29-6.94-2.41-7.6" style="fill:#1b1c20"/>
 </g>
</svg>
