<svg id="Capa_1" enable-background="new 0 0 512 512" height="512" viewBox="0 0 512 512" width="512" xmlns="http://www.w3.org/2000/svg"><g><path d="m491.285 512h-470.57c-9.522 0-17.241-7.719-17.241-17.241v-477.518c0-9.522 7.719-17.241 17.241-17.241h470.57c9.522 0 17.241 7.719 17.241 17.241v477.518c0 9.522-7.719 17.241-17.241 17.241z" fill="#ade194"/><path d="m508.522 17.242v477.517c0 9.519-7.72 17.238-17.238 17.238h-20.559c9.519 0 17.238-7.72 17.238-17.238v-477.517c0-9.519-7.72-17.238-17.238-17.238h20.559c9.519-.001 17.238 7.719 17.238 17.238z" fill="#80d261"/><circle cx="145.134" cy="131.671" fill="#c8effe" r="83.146"/><path d="m228.277 131.671c0 45.918-37.222 83.15-83.139 83.15-20.065 0-38.455-7.103-52.826-18.924 10.845 5.181 22.985 8.08 35.813 8.08 45.918 0 83.139-37.222 83.139-83.139 0-25.863-11.811-48.971-30.324-64.225 28.001 13.382 47.337 41.959 47.337 75.058z" fill="#99e6fc"/><path d="m363.753 313.273-77.43 134.112c-4.129 7.151 1.032 16.09 9.289 16.09h154.859c8.257 0 13.418-8.939 9.289-16.09l-77.43-134.112c-4.126-7.151-14.448-7.151-18.577 0z" fill="#f9f3f1"/><path d="m450.475 463.478h-8.429c.421-2.333.062-4.862-1.285-7.196l-77.434-134.115c-.761-1.316-1.737-2.395-2.837-3.228l3.269-5.664c4.122-7.154 14.442-7.154 18.575 0l77.424 134.104c4.131 7.156-1.029 16.099-9.283 16.099z" fill="#efe2dd"/><path d="m445.462 214.817h-144.838c-5.924 0-10.727-4.802-10.727-10.727v-144.838c0-5.924 4.802-10.727 10.727-10.727h144.838c5.924 0 10.727 4.802 10.727 10.727v144.838c0 5.924-4.803 10.727-10.727 10.727z" fill="#fef48b"/><path d="m456.19 59.253v144.836c0 5.921-4.8 10.732-10.732 10.732h-20.558c5.931 0 10.732-4.811 10.732-10.732v-144.836c0-5.921-4.8-10.732-10.732-10.732h20.559c5.931.001 10.731 4.811 10.731 10.732z" fill="#fee903"/><path d="m186.945 297.183h-83.623c-3.832 0-7.373 2.044-9.289 5.363l-41.811 72.419c-1.916 3.319-1.916 7.408 0 10.727l41.811 72.419c1.916 3.319 5.457 5.363 9.289 5.363h83.623c3.832 0 7.373-2.044 9.289-5.363l41.811-72.419c1.916-3.319 1.916-7.408 0-10.727l-41.811-72.419c-1.915-3.318-5.456-5.363-9.289-5.363z" fill="#d9b1ee"/><path d="m238.042 385.694-41.806 72.418c-1.922 3.32-5.458 5.366-9.292 5.366h-24.414c3.834 0 7.381-2.046 9.293-5.366l41.816-72.418c1.912-3.32 1.912-7.411 0-10.732l-41.816-72.418c-1.912-3.32-5.458-5.366-9.293-5.366h24.413c3.834 0 7.37 2.046 9.292 5.366l41.806 72.418c1.923 3.321 1.923 7.412.001 10.732z" fill="#cb97e7"/></g></svg>